{
  "accessors": [
    {
      "bufferView": 2,
      "componentType": 5126,
      "count": 65532,
      "max": [
        0.10328920185565948,
        0.17497073113918304,
        0.5000074505805969
      ],
      "min": [
        -0.11018489301204681,
        -0.1386822760105133,
        -0.5
      ],
      "type": "VEC3"
    },
    {
      "bufferView": 2,
      "byteOffset": 786384,
      "componentType": 5126,
      "count": 65532,
      "max": [
        0.9999988675117493,
        1.0,
        0.9996013641357422
      ],
      "min": [
        -0.9999949932098389,
        -0.9999997019767761,
        -0.9999680519104004
      ],
      "type": "VEC3"
    },
    {
      "bufferView": 1,
      "componentType": 5126,
      "count": 65532,
      "max": [
        0.998779296875,
        0.995849609375
      ],
      "min": [
        0.0,
        0.0
      ],
      "type": "VEC2"
    },
    {
      "bufferView": 0,
      "componentType": 5125,
      "count": 329133,
      "type": "SCALAR"
    },
    {
      "bufferView": 2,
      "byteOffset": 1572768,
      "componentType": 5126,
      "count": 56805,
      "max": [
        0.10408467054367065,
        0.12205479294061661,
        0.4997248947620392
      ],
      "min": [
        -0.10974320769309998,
        -0.17498159408569336,
        -0.49957275390625
      ],
      "type": "VEC3"
    },
    {
      "bufferView": 2,
      "byteOffset": 2254428,
      "componentType": 5126,
      "count": 56805,
      "max": [
        0.9999960064888,
        0.9999995827674866,
        0.9997138381004333
      ],
      "min": [
        -0.9999970197677612,
        -0.9999984502792358,
        -0.9998013377189636
      ],
      "type": "VEC3"
    },
    {
      "bufferView": 1,
      "byteOffset": 524256,
      "componentType": 5126,
      "count": 56805,
      "max": [
        0.999755859375,
        0.996337890625
      ],
      "min": [
        0.0,
        0.000244140625
      ],
      "type": "VEC2"
    },
    {
      "bufferView": 0,
      "byteOffset": 1316532,
      "componentType": 5125,
      "count": 264468,
      "type": "SCALAR"
    }
  ],
  "asset": {
    "extras": {
      "author": "adhamasalah (https://sketchfab.com/adhamAsalah)",
      "license": "CC-BY-4.0 (http://creativecommons.org/licenses/by/4.0/)",
      "source": "https://sketchfab.com/3d-models/horror-ghost-character-blood-stained-spirit-ed1a90be19404450935720f7abaae471",
      "title": "Horror Ghost Character - Blood Stained Spirit"
    },
    "generator": "Sketchfab-0.8.0",
    "version": "2.0"
  },
  "bufferViews": [
    {
      "buffer": 0,
      "byteLength": 2374404,
      "name": "floatBufferViews",
      "target": 34963
    },
    {
      "buffer": 0,
      "byteLength": 978696,
      "byteOffset": 2374404,
      "byteStride": 8,
      "name": "floatBufferViews",
      "target": 34962
    },
    {
      "buffer": 0,
      "byteLength": 2936088,
      "byteOffset": 3353100,
      "byteStride": 12,
      "name": "floatBufferViews",
      "target": 34962
    }
  ],
  "buffers": [
    {
      "byteLength": 6289188,
      "uri": "scene.bin"
    }
  ],
  "images": [
    {
      "uri": "textures/tripo_mat_2d99349c_baseColor.png"
    }
  ],
  "materials": [
    {
      "doubleSided": true,
      "name": "tripo_mat_2d99349c",
      "pbrMetallicRoughness": {
        "baseColorTexture": {
          "index": 0
        },
        "metallicFactor": 0.0,
        "roughnessFactor": 0.8211145618000169
      }
    }
  ],
  "meshes": [
    {
      "name": "Horror Ghost Character_tripo_mat_2d99349c_0",
      "primitives": [
        {
          "attributes": {
            "NORMAL": 1,
            "POSITION": 0,
            "TEXCOORD_0": 2
          },
          "indices": 3,
          "material": 0,
          "mode": 4
        }
      ]
    },
    {
      "name": "Horror Ghost Character_tripo_mat_2d99349c_0",
      "primitives": [
        {
          "attributes": {
            "NORMAL": 5,
            "POSITION": 4,
            "TEXCOORD_0": 6
          },
          "indices": 7,
          "material": 0,
          "mode": 4
        }
      ]
    }
  ],
  "nodes": [
    {
      "children": [
        1
      ],
      "matrix": [
        1.0,
        0.0,
        0.0,
        0.0,
        0.0,
        2.220446049250313e-16,
        -1.0,
        0.0,
        0.0,
        1.0,
        2.220446049250313e-16,
        0.0,
        0.0,
        0.0,
        0.0,
        1.0
      ],
      "name": "Sketchfab_model"
    },
    {
      "children": [
        2
      ],
      "matrix": [
        0.009999999776482582,
        0.0,
        0.0,
        0.0,
        0.0,
        0.0,
        0.009999999776482582,
        0.0,
        0.0,
        -0.009999999776482582,
        0.0,
        0.0,
        0.0,
        0.0,
        0.0,
        1.0
      ],
      "name": "e29cd0bedff3416bab515c83fd72bd2c.fbx"
    },
    {
      "children": [
        3
      ],
      "name": "RootNode"
    },
    {
      "children": [
        4,
        5
      ],
      "matrix": [
        100.0,
        0.0,
        0.0,
        0.0,
        0.0,
        -1.629206793918314e-05,
        -99.99999999999868,
        0.0,
        0.0,
        99.99999999999868,
        -1.629206793918314e-05,
        0.0,
        0.0,
        0.0,
        0.0,
        1.0
      ],
      "name": "Horror Ghost Character"
    },
    {
      "mesh": 0,
      "name": "Horror Ghost Character_tripo_mat_2d99349c_0"
    },
    {
      "mesh": 1,
      "name": "Horror Ghost Character_tripo_mat_2d99349c_0"
    }
  ],
  "samplers": [
    {
      "magFilter": 9729,
      "minFilter": 9987,
      "wrapS": 10497,
      "wrapT": 10497
    }
  ],
  "scene": 0,
  "scenes": [
    {
      "name": "Sketchfab_Scene",
      "nodes": [
        0
      ]
    }
  ],
  "textures": [
    {
      "sampler": 0,
      "source": 0
    }
  ]
}
